<?xml version="1.0" encoding="UTF-8"?>
<svg id="svg8" xmlns="http://www.w3.org/2000/svg" version="1.1" xmlns:svg="http://www.w3.org/2000/svg" viewBox="0 0 512 512">
  <!-- Generator: Adobe Illustrator 29.4.0, SVG Export Plug-In . SVG Version: 2.1.0 Build 152)  -->
  <defs>
    <style>
      .st0 {
        fill: #775c89;
      }
    </style>
  </defs>
  <g id="layer1">
    <path id="path12033" class="st0" d="M36,0c-3.6.06-6.75,2.41-7.7,5.83-3.68,13.15-12.44,22.88-22.92,26.58-7.17,2.49-7.17,12.64,0,15.13,10.48,3.72,19.23,13.47,22.89,26.62,1.07,3.85,4.4,5.79,7.67,5.84v.02s.04-.02.06-.02.04.02.06.02v-.02c3.27-.06,6.6-1.99,7.67-5.84,3.66-13.15,12.41-22.91,22.89-26.62,7.17-2.49,7.17-12.64,0-15.13-10.48-3.7-19.24-13.43-22.92-26.58-.95-3.42-4.1-5.77-7.7-5.83ZM475.99.02c-3.6.06-6.75,2.41-7.7,5.83-3.68,13.15-12.44,22.88-22.92,26.58-7.17,2.49-7.17,12.64,0,15.12,10.48,3.72,19.23,13.47,22.89,26.63,1.07,3.85,4.4,5.79,7.67,5.84v.02s.04-.02.06-.02.04.02.06.02v-.02c3.27-.06,6.6-1.99,7.67-5.84,3.66-13.15,12.41-22.91,22.89-26.63,7.17-2.49,7.17-12.64,0-15.12-10.49-3.7-19.25-13.43-22.92-26.58-.95-3.42-4.11-5.77-7.7-5.83h0ZM36,27.23c3.06,4.81,7.64,9.64,11.62,12.73-6.11,5-9.19,9.13-11.62,12.81-2.43-3.69-5.52-7.81-11.62-12.81,3.99-3.1,8.56-7.93,11.62-12.73ZM487.62,39.98c-6.11,5-9.19,9.13-11.62,12.81-2.43-3.69-5.52-7.81-11.62-12.81,3.99-3.1,8.56-7.93,11.62-12.73,3.06,4.81,7.64,9.64,11.62,12.73ZM224,488.03c0,13.16,10.61,23.97,23.98,23.97h16.03c13.38,0,23.98-10.81,23.98-23.97v-8.03c13.39,0,24-10.81,24-23.97v-8.03c10.67,0,10.67-16,0-16v-16c9.25,0,10.45-12.01,3.66-15.2.39-3.7,1.81-7.58,4.06-11.77,22.57,13.46,43.51,22.95,61.17,27,13.73,3.15,25.39,3.18,34.91-1,10.2-4.48,15.9-13.13,17.75-23.67,3.49-19.88-5.97-49.13-26.77-84.73-5.32-9.42-19.41-1.21-13.83,8.06,19.93,34.13,27.32,59.64,24.81,73.91-.97,5.52-3.57,9.7-8.41,11.83-4.84,2.13-13.11,2.72-24.84.03-15.65-3.59-34.71-12.14-55.66-24.53,5.53-6.96,12.01-14.43,19.03-23.02,17.53-21.46,36.08-48.89,36.08-89.81,0-14.54-2.31-28.44-6.47-41.45,18.69-23.51,34.22-46.22,45.92-67,18.79-33.4,28.36-62.76,23.17-82.81-2.77-10.67-9.87-18.58-20.67-21.92-5.04-1.56-10.5-2.1-16.39-1.81-5.89.27-12.18,1.41-18.89,3.2-26.82,7.17-60.8,25.63-99.39,54.28-8.57,6.35.96,19.21,9.53,12.86,37.59-27.91,70.65-45.49,94-51.73,11.68-3.12,20.77-3.25,26.39-1.51s8.5,5.26,9.94,10.61c3.54,13.21-3.26,38.33-21.64,71-9.98,17.73-23.15,37.26-38.84,57.61-19.92-40.61-60.94-68.38-114.61-68.39-53.68,0-94.69,27.79-114.61,68.41-15.7-20.36-28.89-39.9-38.87-57.64-18.38-32.67-25.18-57.78-21.64-71,1.43-5.35,4.31-8.87,9.94-10.61,5.62-1.74,14.71-1.61,26.39,1.51,23.35,6.24,56.41,23.82,94,51.73,8.57,6.35,18.11-6.51,9.53-12.86-38.59-28.65-72.57-47.11-99.39-54.28-6.71-1.79-13-2.92-18.89-3.2-5.89-.27-11.35.24-16.39,1.81-10.8,3.34-17.91,11.25-20.67,21.92-5.19,20.06,4.38,49.41,23.17,82.81,11.7,20.8,27.24,43.51,45.95,67.03-4.16,13.01-6.47,26.91-6.47,41.44,0,40.92,18.54,68.36,36.08,89.81,7.01,8.58,13.5,16.04,19.03,23-20.96,12.4-40.03,20.95-55.69,24.55-11.73,2.69-20.01,2.09-24.84-.03-4.84-2.13-7.44-6.3-8.41-11.83-2.51-14.27,4.88-39.78,24.81-73.91,5.58-9.27-8.51-17.48-13.83-8.06-20.79,35.61-30.26,64.86-26.77,84.73,1.85,10.54,7.55,19.19,17.75,23.67,9.52,4.18,21.18,4.15,34.91,1,17.67-4.05,38.63-13.55,61.22-27.02,2.29,4.19,3.66,8.07,4.05,11.77-6.83,3.17-5.64,15.22,3.62,15.22v16c-10.67,0-10.67,16,0,16v8.03c0,13.16,10.61,23.97,23.99,23.97v8.03h.03ZM256,88.02c-4,0-8,2.67-8,8v16c0,10.67,16,10.67,16,0v-16c0-5.33-4-8-8-8ZM131.55,150.88l11.31,11.33c7.54,7.54,18.86-3.78,11.31-11.33l-11.31-11.31c-1.89-1.89-4.01-2.6-6.02-2.48-6.01.35-10.95,8.14-5.3,13.8h.01ZM369.14,139.56l-11.33,11.31c-7.54,7.54,3.77,18.87,11.31,11.33l11.33-11.33c5.66-5.66.7-13.44-5.31-13.8-2-.12-4.11.6-6,2.48h0ZM359.43,218.5c-9.61,11.79-19.93,23.76-31.06,35.78-23.42,25.3-48.09,48.58-72.41,68.97-24.3-20.39-48.95-43.71-72.34-68.98-11.12-12.01-21.43-23.96-31.03-35.73,16.05-39.31,53.6-66.49,103.42-66.5,49.81,0,87.36,27.17,103.42,66.47h0ZM39.91,168.02c-3.58.02-6.72,2.4-7.69,5.84-4.26,15.05-14.52,26.31-26.92,30.64-7.06,2.54-7.06,12.53,0,15.06,12.4,4.31,22.71,15.61,26.98,30.66,2.25,7.66,13.11,7.66,15.36,0,4.26-15.05,14.52-26.33,26.92-30.66,7.17-2.49,7.17-12.64,0-15.13-12.4-4.31-22.65-15.54-26.92-30.58-.97-3.47-4.13-5.86-7.73-5.84h0ZM471.93,168.02c-3.58.02-6.72,2.4-7.69,5.84-4.26,15.05-14.52,26.31-26.92,30.64-7.06,2.54-7.06,12.53,0,15.06,12.4,4.31,22.71,15.61,26.98,30.66,2.25,7.66,13.11,7.66,15.36,0,4.26-15.05,14.52-26.33,26.92-30.66,7.17-2.49,7.17-12.64,0-15.13-12.4-4.31-22.65-15.54-26.92-30.58-.97-3.47-4.13-5.86-7.73-5.84h0ZM256,168.03c-19.65,0-38.85,5.99-54.97,17.23-9.06,6.08.37,19.59,9.2,13.17,13.43-9.38,29.39-14.41,45.76-14.41,10.89.22,10.89-16.22,0-16h.01ZM39.91,195.52c4.91,7.59,8.23,11.02,15.08,16.48-5.88,4.77-10.2,8.74-15.02,16.5-5.27-8.58-11.05-13.38-15.14-16.48,5.58-4.23,10.88-9.33,15.08-16.5h0ZM471.93,195.52c4.91,7.59,8.23,11.02,15.08,16.48-5.88,4.77-10.2,8.74-15.02,16.5-5.27-8.58-11.05-13.38-15.14-16.48,5.58-4.23,10.88-9.33,15.08-16.5h0ZM184,208.02c-4.42,0-8,3.58-8,8s3.58,8,8,8,8-3.58,8-8-3.58-8-8-8ZM368.03,263.09c0,35-15.79,59.22-32.55,79.72-7.06,8.64-14.22,16.57-20.42,24.53-14.92-9.64-30.6-21.01-46.56-33.8,24.45-20.67,48.85-43.89,71.61-68.47,8.77-9.47,17.1-18.91,24.97-28.27,1.87,8.43,2.95,17.19,2.95,26.28h0ZM146.95,236.83c7.86,9.35,16.18,18.79,24.94,28.25,22.73,24.56,47.13,47.8,71.56,68.47-15.93,12.75-31.6,24.15-46.5,33.78-6.2-7.95-13.35-15.88-20.41-24.52-16.75-20.5-32.55-44.72-32.55-79.72,0-9.09,1.09-17.84,2.95-26.27h.01ZM88,256.02c-10.67,0-10.67,15.98,0,15.98h16c10.67,0,10.67-15.98,0-15.98h-16ZM407.98,256.02c-10.67,0-10.67,15.98,0,15.98h16.02c10.67,0,10.67-15.98,0-15.98h-16.02ZM256,343.95c17,13.75,33.86,26.08,50.09,36.59-3.44,6.1-5.96,12.5-6.52,19.45h-87.12c-.55-6.96-3.04-13.38-6.5-19.48,16.21-10.5,33.07-22.85,50.05-36.56h0ZM383.11,374.14c8.39,6.6,18.28-5.98,9.89-12.58l-12.58-9.89c-2.1-1.65-4.29-2.1-6.27-1.75-5.93,1.06-9.91,9.38-3.62,14.33l12.58,9.89h0ZM131.63,351.73l-12.58,9.91c-8.38,6.6,1.51,19.18,9.89,12.58l12.58-9.91c6.29-4.95,2.3-13.27-3.62-14.33-1.98-.35-4.17.09-6.27,1.75ZM56.02,384.06c-3.6-.02-6.76,2.38-7.73,5.84-6.74,24.71-23.08,43.4-42.98,50.61-7.06,2.54-7.06,12.54,0,15.08,19.91,7.18,36.28,25.84,43.05,50.55,2.18,7.8,13.25,7.8,15.42,0,6.74-24.71,23.08-43.4,42.98-50.61,7.06-2.54,7.06-12.54,0-15.08-19.91-7.18-36.28-25.84-43.05-50.55-.96-3.45-4.11-5.83-7.69-5.84h0ZM455.96,384.06c-3.6-.02-6.76,2.38-7.73,5.84-6.74,24.71-23.08,43.4-42.98,50.61-7.06,2.54-7.06,12.54,0,15.08,19.91,7.18,36.28,25.84,43.05,50.55,2.18,7.8,13.25,7.8,15.42,0,6.74-24.71,23.08-43.4,42.98-50.61,7.06-2.54,7.06-12.54,0-15.08-19.91-7.18-36.28-25.84-43.05-50.55-.96-3.45-4.11-5.83-7.69-5.84h0ZM56.02,413.45c7.89,16.05,17.03,26.25,30.42,34.56-13.83,8.85-22.56,19.32-30.42,34.41-7.1-14.48-18.03-27.46-30.36-34.34,13.88-9.13,22.59-19.17,30.36-34.62h0ZM455.96,413.45c7.89,16.05,17.03,26.25,30.42,34.56-13.83,8.85-22.56,19.32-30.42,34.41-7.1-14.48-18.03-27.46-30.36-34.34,13.88-9.13,22.59-19.17,30.36-34.62h0ZM216,416h80v16h-80v-16ZM216,448h80v8.03c0,4.57-3.66,7.97-7.98,7.97h-64.03c-4.32,0-7.98-3.4-7.98-7.97v-8.03h0ZM240,480h32v8.03c0,4.57-3.66,7.97-7.98,7.97h-16.03c-4.32,0-7.98-3.4-7.98-7.97v-8.03h0Z" vector-effect="none"/>
  </g>
</svg>