<?xml version="1.0" encoding="UTF-8"?>
<svg id="Layer_1" xmlns="http://www.w3.org/2000/svg" version="1.1" viewBox="0 0 512 512">
  <!-- Generator: Adobe Illustrator 29.4.0, SVG Export Plug-In . SVG Version: 2.1.0 Build 152)  -->
  <defs>
    <style>
      .st0 {
        fill: #1288a6;
      }
    </style>
  </defs>
  <path class="st0" d="M186.29,357.58v77.7c0,4.42-3.58,8-8,8s-8-3.58-8-8v-77.7c0-4.42,3.58-8,8-8s8,3.58,8,8h0ZM473.86,380.73v102.89c0,8.48-6.91,15.37-15.4,15.37h-145.87c-8.49,0-15.4-6.89-15.4-15.37v-102.89c0-8.48,6.91-15.37,15.4-15.37h41.55v-8.16c0-8.6,6.98-15.6,15.57-15.6h7.23c-4.28-30.27-32.48-53.73-66.53-53.73h-28.43c.36,3.21-.21,6.51-1.76,9.58-1.34,2.71-3.22,5.17-5.47,7.21l15.42,104.75c.38,2.59-.53,5.2-2.44,6.99l-26.27,24.69c-1.54,1.45-3.51,2.17-5.48,2.17s-3.94-.72-5.48-2.17l-26.27-24.69c-1.91-1.79-2.82-4.41-2.44-7l15.45-104.75c-2.24-2.03-4.12-4.48-5.49-7.21-1.53-3.08-2.09-6.38-1.74-9.58h-28.45c-37.01,0-67.12,27.69-67.12,61.73v85.66c0,4.42-3.58,8-8,8s-8-3.58-8-8v-85.66c0-42.86,37.29-77.73,83.12-77.73h13.8c-4.64-4.35-8.85-9.54-12.57-15.58-9.74-15.81-15.55-37.17-15.55-57.15,0-37.92,30.84-68.77,68.75-68.77s68.77,30.85,68.77,68.77c0,20.79-5.87,41.94-16.1,58.01-3.61,5.67-7.65,10.58-12.08,14.72h13.82c42.94,0,78.38,30.61,82.68,69.73h8.26c8.58,0,15.57,7,15.57,15.6v8.16h41.55c8.49,0,15.4,6.89,15.4,15.37h0ZM216.42,247.91c9.8,15.91,23.12,23.97,39.57,23.97,20.12,0,32.41-12.67,39.18-23.31,8.51-13.38,13.6-31.85,13.6-49.42,0-29.1-23.67-52.77-52.77-52.77s-52.74,23.67-52.74,52.77c0,17.14,4.93,35.36,13.18,48.75h-.02ZM263.21,287.88h-14.43c-1.78,0-2.4.87-2.6,1.16-.36.5-.38.74-.12,1.26.77,1.52,2.07,2.87,3.54,3.65,3,1.58,4.67,4.89,4.17,8.24l-15.55,105.42,17.75,16.68,17.75-16.68-15.52-105.42c-.49-3.35,1.18-6.65,4.17-8.24,1.47-.78,2.75-2.11,3.52-3.65.24-.47.28-.69-.1-1.23-.24-.35-.83-1.19-2.59-1.19h.01ZM400.91,357.61h-7.39v7.75h7.39v-7.75ZM370.14,365.36h7.39v-7.75h-7.39v7.75ZM313.19,381.36v30.57c16.44,3.84,34.94,6.31,54.24,7.26v-5.83c0-6.18,5.04-11.2,11.23-11.2h13.72c6.19,0,11.23,5.03,11.23,11.2v5.83c19.3-.94,37.8-3.42,54.24-7.26v-30.57h-144.66ZM383.43,418.16v16.92c0,1.12.96,2.06,2.09,2.06s2.09-.95,2.09-2.06v-16.92h-4.18ZM457.86,483v-54.66c-16.67,3.64-35.12,5.98-54.25,6.87-.08,9.9-8.15,17.92-18.08,17.92s-18.01-8.03-18.08-17.92c-19.13-.9-37.58-3.24-54.25-6.87v54.66h144.66,0ZM203.14,60.82c-2.07-2.13-2.79-5.23-1.87-8.05s3.32-4.9,6.24-5.41l28.1-4.86,13.3-25.23c1.38-2.63,4.11-4.27,7.08-4.27s5.69,1.64,7.08,4.27l13.3,25.23,28.12,4.86c2.93.51,5.33,2.59,6.25,5.41s.2,5.92-1.88,8.05l-19.9,20.45,4.08,28.24c.42,2.94-.81,5.87-3.21,7.62-1.39,1.01-3.04,1.53-4.7,1.53-1.2,0-2.41-.27-3.53-.82l-25.6-12.6-25.58,12.6c-2.66,1.31-5.83,1.04-8.24-.7s-3.64-4.67-3.22-7.61l4.06-28.25-19.88-20.45h0ZM225.18,60.54l12.05,12.4c1.73,1.78,2.54,4.26,2.18,6.71l-2.46,17.12,15.5-7.64c1.12-.55,2.32-.82,3.54-.82s2.42.27,3.53.82l15.52,7.64-2.48-17.11c-.36-2.46.45-4.94,2.18-6.72l12.06-12.39-17.04-2.94c-2.45-.42-4.56-1.96-5.72-4.15l-8.06-15.29-8.06,15.29c-1.16,2.19-3.27,3.73-5.71,4.15l-17.03,2.94h0ZM92.08,85.17c-2.07-2.13-2.79-5.23-1.87-8.05s3.32-4.9,6.25-5.41l28.12-4.86,13.3-25.23c1.38-2.63,4.11-4.27,7.08-4.27s5.69,1.64,7.08,4.27l13.3,25.23,28.1,4.86c2.92.51,5.33,2.59,6.24,5.41s.2,5.92-1.87,8.05l-19.88,20.45,4.06,28.25c.42,2.94-.82,5.87-3.22,7.61-1.39,1.01-3.04,1.53-4.7,1.53-1.21,0-2.41-.27-3.54-.82l-25.58-12.6-25.6,12.6c-2.66,1.31-5.83,1.04-8.23-.7s-3.64-4.67-3.22-7.61l4.06-28.25-19.88-20.45h0ZM114.13,84.89l12.05,12.4c1.73,1.78,2.53,4.26,2.18,6.71l-2.46,17.13,15.53-7.64c2.23-1.1,4.84-1.1,7.07,0l15.5,7.64-2.46-17.12c-.35-2.46.45-4.94,2.18-6.71l12.05-12.4-17.03-2.94c-2.45-.42-4.56-1.96-5.71-4.15l-8.06-15.29-8.06,15.29c-1.16,2.2-3.27,3.73-5.72,4.15l-17.06,2.95h0v-.02ZM108.74,224.82c.43,2.94-.81,5.87-3.21,7.62-1.39,1.01-3.04,1.53-4.71,1.53-1.2,0-2.41-.27-3.53-.82l-25.61-12.58-25.58,12.58c-2.67,1.31-5.83,1.04-8.23-.71-2.4-1.74-3.64-4.67-3.22-7.61l4.06-28.22-19.88-20.45c-2.07-2.13-2.79-5.23-1.87-8.05.92-2.82,3.32-4.9,6.24-5.41l28.1-4.86,13.3-25.23c1.39-2.63,4.11-4.27,7.08-4.27s5.69,1.64,7.08,4.27l13.3,25.23,28.12,4.86c2.93.51,5.33,2.59,6.25,5.41s.19,5.92-1.88,8.05l-19.9,20.45,4.08,28.21h0ZM102.5,175.88l-17.04-2.94c-2.45-.42-4.56-1.96-5.72-4.15l-8.06-15.29-8.06,15.29c-1.16,2.2-3.27,3.73-5.71,4.15l-17.03,2.94,12.05,12.4c1.73,1.78,2.53,4.26,2.18,6.72l-2.46,17.1,15.5-7.62c1.11-.55,2.32-.82,3.53-.82s2.42.27,3.53.82l15.52,7.62-2.48-17.1c-.36-2.46.45-4.95,2.18-6.73l12.06-12.39h.01ZM314.2,85.17c-2.07-2.13-2.79-5.23-1.87-8.05s3.32-4.9,6.24-5.41l28.1-4.86,13.3-25.23c1.39-2.62,4.11-4.27,7.08-4.27s5.69,1.64,7.08,4.27l13.3,25.23,28.12,4.86c2.93.5,5.33,2.59,6.25,5.41.92,2.82.19,5.92-1.88,8.05l-19.9,20.45,4.09,28.24c.42,2.94-.81,5.87-3.21,7.62s-5.57,2.02-8.24.71l-25.6-12.6-25.58,12.6c-1.12.55-2.33.82-3.54.82-1.66,0-3.31-.52-4.7-1.53-2.4-1.74-3.64-4.67-3.22-7.61l4.06-28.25-19.88-20.45h0ZM336.24,84.89l12.05,12.4c1.73,1.78,2.54,4.26,2.18,6.71l-2.46,17.12,15.5-7.64c1.11-.55,2.33-.82,3.54-.82s2.42.27,3.53.82l15.52,7.64-2.48-17.11c-.36-2.46.45-4.94,2.18-6.72l12.06-12.39-17.04-2.94c-2.45-.42-4.56-1.96-5.72-4.15l-8.06-15.29-8.06,15.29c-1.16,2.19-3.27,3.73-5.71,4.15l-17.03,2.94h0ZM493.16,176.16l-19.9,20.45,4.08,28.21c.42,2.94-.81,5.87-3.21,7.62-1.39,1.01-3.05,1.53-4.71,1.53-1.2,0-2.41-.27-3.53-.82l-25.61-12.58-25.58,12.58c-2.67,1.31-5.83,1.04-8.23-.71-2.4-1.74-3.64-4.67-3.22-7.61l4.06-28.22-19.88-20.45c-2.07-2.13-2.79-5.23-1.87-8.05s3.32-4.9,6.24-5.41l28.1-4.86,13.3-25.23c1.39-2.63,4.11-4.27,7.08-4.27s5.69,1.64,7.08,4.27l13.3,25.23,28.12,4.86c2.93.51,5.33,2.59,6.25,5.41s.19,5.92-1.88,8.05h.01ZM471.11,175.88l-17.04-2.94c-2.45-.42-4.56-1.96-5.72-4.15l-8.06-15.29-8.06,15.29c-1.16,2.2-3.27,3.73-5.71,4.15l-17.03,2.94,12.05,12.4c1.73,1.78,2.54,4.26,2.18,6.72l-2.46,17.1,15.5-7.62c1.11-.55,2.32-.82,3.53-.82s2.42.27,3.53.82l15.52,7.62-2.48-17.1c-.36-2.46.45-4.95,2.18-6.73l12.06-12.39h.01Z"/>
</svg>