<?xml version="1.0" encoding="UTF-8"?>
<svg id="Layer_1" xmlns="http://www.w3.org/2000/svg" version="1.1" viewBox="0 0 512 512">
  <!-- Generator: Adobe Illustrator 29.4.0, SVG Export Plug-In . SVG Version: 2.1.0 Build 152)  -->
  <defs>
    <style>
      .st0 {
        fill: #f9b016;
      }
    </style>
  </defs>
  <path class="st0" d="M443.45,216.71c-5.41,0-9.66,4.35-9.66,9.76s4.25,9.66,9.66,9.66,9.66-4.35,9.66-9.66-4.34-9.76-9.66-9.76Z"/>
  <path class="st0" d="M443.45,275.94c-5.41,0-9.66,4.25-9.66,9.56s4.25,9.66,9.66,9.66,9.66-4.25,9.66-9.66-4.34-9.56-9.66-9.56Z"/>
  <path class="st0" d="M443.45,246.37c-5.41,0-9.66,4.25-9.66,9.56s4.25,9.66,9.66,9.66,9.66-4.25,9.66-9.66-4.34-9.56-9.66-9.56Z"/>
  <path class="st0" d="M353.9,410.21c4.83-2.42,6.76-8.21,4.44-12.95-2.42-4.83-8.21-6.76-12.94-4.44-4.83,2.42-6.76,8.21-4.44,12.95,2.57,4.99,8.44,6.69,12.94,4.44Z"/>
  <path class="st0" d="M383.37,395.62c4.83-2.32,6.76-8.11,4.34-12.94-2.32-4.74-8.11-6.67-12.84-4.35-4.83,2.42-6.76,8.12-4.45,12.95,2.33,4.52,7.82,6.92,12.95,4.34Z"/>
  <path class="st0" d="M324.53,424.7c4.74-2.42,6.76-8.12,4.35-12.95-2.32-4.83-8.11-6.76-12.94-4.34-4.74,2.32-6.76,8.11-4.35,12.85,2.33,4.93,8.1,6.7,12.94,4.44Z"/>
  <path class="st0" d="M166.59,392.82c-4.83-2.42-10.63-.39-12.95,4.35-2.42,4.83-.39,10.63,4.35,12.94,5.46,2.56,10.81.04,12.94-4.34,2.42-4.83.39-10.63-4.34-12.95h0Z"/>
  <path class="st0" d="M141.47,391.18c2.42-4.73.39-10.53-4.35-12.94-4.83-2.32-10.63-.39-12.94,4.44-2.42,4.73-.39,10.53,4.35,12.94,4.93,2.31,10.69.33,12.94-4.44Z"/>
  <path class="st0" d="M200.4,420.26c2.42-4.74.39-10.53-4.35-12.95-4.83-2.32-10.63-.39-12.94,4.44-2.42,4.74-.39,10.53,4.34,12.95,5.05,2.34,10.73.25,12.95-4.44h0Z"/>
  <path class="st0" d="M68.63,265.6c5.31,0,9.66-4.25,9.66-9.56s-4.35-9.66-9.66-9.66-9.66,4.25-9.66,9.66,4.25,9.56,9.66,9.56Z"/>
  <path class="st0" d="M68.63,295.26c5.31,0,9.66-4.35,9.66-9.66s-4.35-9.76-9.66-9.76-9.66,4.35-9.66,9.76,4.25,9.66,9.66,9.66Z"/>
  <path class="st0" d="M68.63,236.13c5.31,0,9.66-4.35,9.66-9.66s-4.35-9.76-9.66-9.76-9.66,4.35-9.66,9.76,4.25,9.66,9.66,9.66Z"/>
  <path class="st0" d="M187.45,87.27c-4.73,2.42-6.76,8.21-4.34,12.94,2.39,5.06,8.54,6.65,12.94,4.44,4.74-2.42,6.76-8.21,4.35-12.94-2.32-4.83-8.12-6.76-12.95-4.44h0Z"/>
  <path class="st0" d="M128.53,116.35c-4.74,2.42-6.76,8.21-4.35,12.94,2.38,5.04,8.5,6.67,12.94,4.44,4.74-2.42,6.76-8.21,4.35-12.94-2.32-4.83-8.11-6.76-12.94-4.44Z"/>
  <path class="st0" d="M157.99,101.85c-4.74,2.32-6.76,8.11-4.35,12.94,2.15,4.42,7.75,6.95,12.95,4.34,4.73-2.32,6.76-8.11,4.34-12.94-2.32-4.73-8.11-6.76-12.94-4.34h0Z"/>
  <path class="st0" d="M340.96,106.2c-2.32,4.74-.39,10.53,4.44,12.94,4.36,2.19,10.38.71,12.94-4.44,2.32-4.73.39-10.53-4.44-12.94-4.73-2.32-10.53-.39-12.94,4.44Z"/>
  <path class="st0" d="M311.59,91.71c-2.42,4.74-.39,10.53,4.35,12.85,5.19,2.59,10.79.08,12.94-4.35,2.42-4.83.39-10.53-4.35-12.94-4.83-2.32-10.62-.39-12.94,4.44Z"/>
  <path class="st0" d="M370.42,120.69c-2.32,4.83-.38,10.63,4.45,12.94,4.41,2.22,10.43.62,12.84-4.34,2.42-4.83.49-10.63-4.34-12.94-4.74-2.42-10.53-.39-12.95,4.34Z"/>
  <path class="st0" d="M483.02,128.25l-34.8-20.09c-2.99-1.73-6.67-1.73-9.66,0l-34.8,20.09c-2.99,1.73-4.83,4.92-4.83,8.37,0,.99,0,22.83,0,21.53v3.14l-83,45.83-50.26-28.04v-59.37c2.67-1.54,31.78-18.35,29.97-17.3,2.74-1.58,4.61-4.7,4.77-7.9.13-2.55.06-41.57.06-40.6,0-3.45-1.84-6.64-4.83-8.37l-34.8-20.09c-2.99-1.73-6.67-1.73-9.66,0l-34.8,20.09c-2.99,1.73-4.83,4.92-4.83,8.37v40.13c0,2.93,1.75,6.59,4.83,8.37l29.98,17.31v59.36l-50.28,28.05-82.99-45.78v-24.72c0-3.45-1.84-6.64-4.83-8.37l-34.8-20.09c-2.99-1.73-6.67-1.73-9.66,0l-34.8,20.09c-2.99,1.73-4.83,4.92-4.83,8.37v40.13c0,3.45,1.84,6.64,4.83,8.37l34.8,20.09c2.71,1.56,6.79,1.66,9.66,0,1.03-.6,36.46-21.05,34.8-20.09,1.2-.69,2.16-1.67,2.94-2.76l75.25,41.51v64.26l-75.26,41.5c-.78-1.08-1.73-2.05-2.93-2.74-.98-.57-36.7-21.19-34.8-20.09-4.68-2.71-8.68-.24-9.66,0l-34.8,20.09c-2.99,1.73-4.83,4.92-4.83,8.37v40.13c0,3.45,1.84,6.64,4.83,8.37l34.8,20.09c1.5.86,3.16,1.29,4.83,1.29s3.33-.43,4.83-1.29l34.8-20.09c2.99-1.73,4.83-4.92,4.83-8.37v-24.74l83-45.76,50.27,28.05v59.36l-29.98,17.31c-3.17,1.83-4.83,5.58-4.83,8.37v40.13c0,3.45,1.84,6.64,4.83,8.36l34.8,20.1c1.5.86,3.16,1.3,4.83,1.3s3.33-.43,4.83-1.3l34.8-20.1c2.99-1.72,4.83-4.91,4.83-8.36,0-.97,0-41.14,0-40.17-.01-2.87-1.72-6.54-4.82-8.33l-29.97-17.3v-59.37l50.26-28.04,83,45.81v21.89c.2,1.02-1.24,7.66,4.83,11.17l34.8,20.09c1.5.86,3.16,1.29,4.83,1.29s3.33-.43,4.83-1.29l34.8-20.09c2.99-1.73,4.83-4.92,4.83-8.37v-40.13c0-3.45-1.84-6.64-4.83-8.37l-34.8-20.09c-3.64-2.11-6.25-1.31-9.66,0-.98.56-36.55,21.1-34.43,19.88-.97.5-2.49,1.58-3.44,2.92l-75.12-41.46v-64.26l75.13-41.48c.92,1.21,2.3,2.29,3.06,2.73,1.02.59,36.3,20.96,34.8,20.09,2.71,1.57,6.77,1.67,9.66,0,30.37-19.17,39.63-18.91,39.63-28.46v-40.13c0-3.45-1.84-6.64-4.83-8.37v-.03h0ZM93.75,171.17l-25.14,14.51-25.14-14.51v-28.98l25.14-14.51,25.14,14.51c0,2.94,0,30.37,0,28.98ZM93.75,369.81l-25.14,14.51-25.14-14.51v-28.98l25.14-14.51,25.14,14.51c0,3.27,0,30.33,0,28.98ZM230.86,88.46c0-1.92,0-30.32,0-28.98l25.14-14.51,25.14,14.51v28.98l-25.14,14.51s-25.14-14.51-25.14-14.51ZM246.34,310.8l-40.58-22.64v-53.54l40.58,22.64v53.54h0ZM215.93,218.17l40.07-22.35,40.07,22.35-40.07,22.36-40.07-22.36ZM281.14,423.53v28.98l-25.14,14.52-25.14-14.52c0-3.67,0-30.36,0-28.98,2.32-1.34,26.7-15.41,25.14-14.51,1.03.59,26.72,15.42,25.14,14.51ZM306.24,288.16l-40.58,22.64v-53.54l40.58-22.64v53.54h0ZM418.25,340.83l25.14-14.51,25.14,14.51v28.98l-25.14,14.51-25.14-14.51v-28.98ZM468.53,171.17l-25.14,14.51-25.14-14.51v-28.98l25.14-14.51,25.14,14.51v28.98h0Z"/>
</svg>